<svg width="54" height="54" viewBox="0 0 54 54" fill="none" xmlns="http://www.w3.org/2000/svg">
<path d="M42.75 38.25H47.25C48.6 38.25 49.5 37.35 49.5 36V29.25C49.5 27.225 47.925 25.425 46.125 24.975C42.075 23.85 36 22.5 36 22.5C36 22.5 33.075 19.35 31.05 17.325C29.925 16.425 28.575 15.75 27 15.75H11.25C9.9 15.75 8.775 16.65 8.1 17.775L4.95 24.3C4.65206 25.169 4.5 26.0813 4.5 27V36C4.5 37.35 5.4 38.25 6.75 38.25H11.25M42.75 38.25C42.75 40.7353 40.7353 42.75 38.25 42.75C35.7647 42.75 33.75 40.7353 33.75 38.25M42.75 38.25C42.75 35.7647 40.7353 33.75 38.25 33.75C35.7647 33.75 33.75 35.7647 33.75 38.25M11.25 38.25C11.25 40.7353 13.2647 42.75 15.75 42.75C18.2353 42.75 20.25 40.7353 20.25 38.25M11.25 38.25C11.25 35.7647 13.2647 33.75 15.75 33.75C18.2353 33.75 20.25 35.7647 20.25 38.25M20.25 38.25H33.75" stroke="black" stroke-width="4" stroke-linecap="round" stroke-linejoin="round"/>
</svg>
